<?xml version="1.0" encoding="iso-8859-1"?>
<!-- Generator: Adobe Illustrator 19.0.0, SVG Export Plug-In . SVG Version: 6.00 Build 0)  -->
<svg version="1.1" id="Layer_1" xmlns="http://www.w3.org/2000/svg" xmlns:xlink="http://www.w3.org/1999/xlink" x="0px" y="0px"
	 viewBox="0 0 407.383 407.383" style="enable-background:new 0 0 407.383 407.383;" xml:space="preserve">
<g id="XMLID_59_">
	<path id="XMLID_1461_" style="fill:#95D5A7;" d="M340.017,14.748C334.793,9.523,329.371,4.615,323.792,0L0,323.793
		c4.616,5.578,9.524,11,14.749,16.225c89.821,89.821,235.448,89.82,325.268,0C429.838,250.197,429.838,104.57,340.017,14.748z"/>
	<path id="XMLID_1460_" style="fill:#E17858;" d="M61.216,293.552c64.159,64.157,168.177,64.157,232.335,0.001
		c64.158-64.158,64.158-168.178-0.001-232.336c-5.251-5.252-10.776-10.067-16.518-14.457L46.759,277.034
		C51.149,282.773,55.965,288.299,61.216,293.552z"/>
	<g id="XMLID_60_">
		
			<rect id="XMLID_1459_" x="214.738" y="214.741" transform="matrix(-0.7071 -0.7071 0.7071 -0.7071 229.7348 554.6417)" style="fill:#242424;" width="29.999" height="30"/>
	</g>
	<g id="XMLID_61_">
		
			<rect id="XMLID_1457_" x="231.574" y="151.952" transform="matrix(-0.2588 -0.9659 0.9659 -0.2588 149.1258 448.3326)" style="fill:#242424;" width="30" height="29.998"/>
	</g>
	<g id="XMLID_62_">
		
			<rect id="XMLID_1455_" x="151.943" y="231.572" transform="matrix(-0.9659 -0.2589 0.2589 -0.9659 264.3563 527.957)" style="fill:#242424;" width="30" height="29.998"/>
	</g>
	<path id="XMLID_1453_" style="fill:#80CB93;" d="M41.688,310.389c-4.763-4.764-9.315-9.641-13.674-14.609L0,323.793
		c4.616,5.578,9.524,11,14.749,16.225c69.753,69.754,173.158,85.324,257.95,46.738C199.92,405.346,109.657,378.357,41.688,310.389z"
		/>
	<path id="XMLID_1452_" style="fill:#AEDEBA;" d="M323.792,0l-28.014,28.014c4.968,4.359,9.847,8.911,14.61,13.674
		c67.968,67.969,94.956,158.232,76.367,231.01c38.585-84.791,23.016-188.195-46.739-257.949C334.793,9.523,329.371,4.615,323.792,0z
		"/>
</g>
<g>
</g>
<g>
</g>
<g>
</g>
<g>
</g>
<g>
</g>
<g>
</g>
<g>
</g>
<g>
</g>
<g>
</g>
<g>
</g>
<g>
</g>
<g>
</g>
<g>
</g>
<g>
</g>
<g>
</g>
</svg>
